<svg width="56" height="56" viewBox="0 0 56 56" fill="none" xmlns="http://www.w3.org/2000/svg">
<path opacity="0.2" d="M28.0002 33.25C20.6279 33.2616 13.3836 31.3235 7.00195 27.6322V45.5C7.00195 45.7298 7.04722 45.9574 7.13516 46.1697C7.22311 46.382 7.35201 46.575 7.51451 46.7375C7.67702 46.9 7.86993 47.0289 8.08225 47.1168C8.29458 47.2048 8.52214 47.25 8.75195 47.25H47.252C47.4818 47.25 47.7093 47.2048 47.9216 47.1168C48.134 47.0289 48.3269 46.9 48.4894 46.7375C48.6519 46.575 48.7808 46.382 48.8687 46.1697C48.9567 45.9574 49.002 45.7298 49.002 45.5V27.6301C42.6195 31.3228 35.3739 33.2616 28.0002 33.25Z" fill="#F249C8"/>
<path d="M47.252 15.75H8.75195C7.78545 15.75 7.00195 16.5335 7.00195 17.5V45.5C7.00195 46.4665 7.78545 47.25 8.75195 47.25H47.252C48.2185 47.25 49.002 46.4665 49.002 45.5V17.5C49.002 16.5335 48.2185 15.75 47.252 15.75Z" stroke="#F249C8" stroke-width="3" stroke-linecap="round" stroke-linejoin="round"/>
<path d="M36.752 15.75V12.25C36.752 11.3217 36.3832 10.4315 35.7268 9.77513C35.0705 9.11875 34.1802 8.75 33.252 8.75H22.752C21.8237 8.75 20.9335 9.11875 20.2771 9.77513C19.6207 10.4315 19.252 11.3217 19.252 12.25V15.75" stroke="#F249C8" stroke-width="3" stroke-linecap="round" stroke-linejoin="round"/>
<path d="M49.0023 27.6301C42.6198 31.3227 35.3742 33.2616 28.0005 33.25C20.6281 33.2616 13.3837 31.3234 7.00195 27.632" stroke="#F249C8" stroke-width="3" stroke-linecap="round" stroke-linejoin="round"/>
<path d="M25.375 26.25H30.625" stroke="#F249C8" stroke-width="3" stroke-linecap="round" stroke-linejoin="round"/>
</svg>
