<svg width="103" height="102" viewBox="0 0 103 102" fill="none" xmlns="http://www.w3.org/2000/svg">
<rect x="0.5" width="102" height="102" rx="20" fill="#3ADAD9"/>
<g clip-path="url(#clip0_576_9832)">
<path d="M51.1 33.0868C50.2513 33.0868 49.5625 32.398 49.5625 31.5493V27.5375C49.5625 26.6888 50.2513 26 51.1 26C51.9487 26 52.6375 26.6888 52.6375 27.5375V31.5493C52.6375 32.398 51.9487 33.0868 51.1 33.0868Z" fill="white"/>
<path d="M64.5702 38.6669C64.1766 38.6669 63.783 38.5173 63.4837 38.2159C62.883 37.6153 62.883 36.6415 63.4837 36.0409L66.3209 33.2037C66.9215 32.603 67.8953 32.603 68.4959 33.2037C69.0966 33.8043 69.0966 34.7781 68.4959 35.3787L65.6587 38.2159C65.3574 38.5152 64.9638 38.6669 64.5702 38.6669Z" fill="white"/>
<path d="M74.1626 52.1375H70.1508C69.3021 52.1375 68.6133 51.4487 68.6133 50.6C68.6133 49.7513 69.3021 49.0625 70.1508 49.0625H74.1626C75.0113 49.0625 75.7001 49.7513 75.7001 50.6C75.7001 51.4487 75.0113 52.1375 74.1626 52.1375Z" fill="white"/>
<path d="M67.4074 68.4452C67.0138 68.4452 66.6202 68.2956 66.3209 67.9942L63.4837 65.157C62.883 64.5564 62.883 63.5826 63.4837 62.982C64.0843 62.3813 65.0581 62.3813 65.6587 62.982L68.4959 65.8192C69.0966 66.4198 69.0966 67.3936 68.4959 67.9942C68.1946 68.2956 67.801 68.4452 67.4074 68.4452Z" fill="white"/>
<path d="M34.7909 68.4452C34.3973 68.4452 34.0037 68.2956 33.7044 67.9942C33.1037 67.3936 33.1037 66.4198 33.7044 65.8192L36.5416 62.982C37.1422 62.3813 38.116 62.3813 38.7166 62.982C39.3173 63.5826 39.3173 64.5564 38.7166 65.157L35.8794 67.9942C35.5781 68.2956 35.1845 68.4452 34.7909 68.4452Z" fill="white"/>
<path d="M32.0493 52.1375H28.0375C27.1888 52.1375 26.5 51.4487 26.5 50.6C26.5 49.7513 27.1888 49.0625 28.0375 49.0625H32.0493C32.898 49.0625 33.5868 49.7513 33.5868 50.6C33.5868 51.4487 32.898 52.1375 32.0493 52.1375Z" fill="white"/>
<path d="M37.6281 38.6669C37.2345 38.6669 36.8409 38.5173 36.5416 38.2159L33.7044 35.3787C33.1037 34.7781 33.1037 33.8043 33.7044 33.2037C34.305 32.603 35.2788 32.603 35.8794 33.2037L38.7166 36.0409C39.3173 36.6415 39.3173 37.6153 38.7166 38.2159C38.4132 38.5152 38.0217 38.6669 37.6281 38.6669Z" fill="white"/>
<path d="M57.2492 69.05V71.6126C57.2492 73.5806 55.6297 75.2001 53.6617 75.2001H48.5367C46.8147 75.2001 44.9492 73.8881 44.9492 71.018V69.05H57.2492Z" fill="white"/>
<path d="M60.1392 39.4481C56.7772 36.7216 52.3492 35.6556 48.0237 36.5781C42.5912 37.7056 38.1837 42.1336 37.0562 47.5661C35.9082 53.1421 37.9992 58.6771 42.4682 62.0596C43.6777 62.9616 44.5182 64.3556 44.8052 65.9751V65.9956C44.8462 65.9751 44.9077 65.9751 44.9487 65.9751H57.2487C57.2897 65.9751 57.3102 65.9751 57.3512 65.9956V65.9751C57.6382 64.4171 58.5607 62.9821 59.9752 61.8751C63.4397 59.1281 65.4487 55.0281 65.4487 50.6001C65.4487 46.2541 63.5217 42.1951 60.1392 39.4481ZM50.33 50.0876H51.8675C54.2701 50.0876 56.2237 52.0413 56.2237 54.4439C56.2237 56.582 54.6719 58.3573 52.6362 58.7222V61.3626C52.6362 62.2113 51.9474 62.9001 51.0987 62.9001C50.25 62.9001 49.5612 62.2113 49.5612 61.3626V58.8001H47.5112C46.6625 58.8001 45.9737 58.1113 45.9737 57.2626C45.9737 56.4139 46.6625 55.7251 47.5112 55.7251H51.8675C52.5747 55.7251 53.1487 55.1511 53.1487 54.4439C53.1487 53.7366 52.5747 53.1626 51.8675 53.1626H50.33C47.9274 53.1626 45.9737 51.209 45.9737 48.8064C45.9737 46.6682 47.5256 44.8929 49.5612 44.528V41.8876C49.5612 41.0389 50.25 40.3501 51.0987 40.3501C51.9474 40.3501 52.6362 41.0389 52.6362 41.8876V44.4501H54.6862C55.5349 44.4501 56.2237 45.1389 56.2237 45.9876C56.2237 46.8363 55.5349 47.5251 54.6862 47.5251H50.33C49.6227 47.5251 49.0487 48.0991 49.0487 48.8064C49.0487 49.5136 49.6227 50.0876 50.33 50.0876Z" fill="white"/>
<path d="M44.8066 65.9749H44.9509C44.9097 65.9749 44.8479 65.9749 44.8066 65.9955V65.9749Z" fill="white"/>
<path d="M57.354 65.9749V65.9956C57.3124 65.9749 57.2916 65.9749 57.25 65.9749H57.354Z" fill="white"/>
</g>
<defs>
<clipPath id="clip0_576_9832">
<rect width="49.2" height="49.2" fill="white" transform="translate(26.5 26)"/>
</clipPath>
</defs>
</svg>
