<svg width="79" height="79" viewBox="0 0 79 79" fill="none" xmlns="http://www.w3.org/2000/svg">
<g clip-path="url(#clip0_207_7015)">
<path d="M39.5 79C61.3152 79 79 61.3152 79 39.5C79 17.6848 61.3152 0 39.5 0C17.6848 0 0 17.6848 0 39.5C0 61.3152 17.6848 79 39.5 79Z" fill="#F0F0F0"/>
<path d="M79 39.5C79 23.8398 69.8864 10.3086 56.6738 3.91943V75.0804C69.8864 68.6914 79 55.1602 79 39.5Z" fill="#D80027"/>
<path d="M0 39.5C0 55.1602 9.11355 68.6914 22.3261 75.0805V3.91943C9.11355 10.3086 0 23.8398 0 39.5Z" fill="#D80027"/>
<path d="M46.3694 44.6521L53.2389 41.2173L49.8042 39.5V36.0652L42.9346 39.5L46.3694 32.6304H42.9346L39.4998 27.4783L36.065 32.6304H32.6302L36.065 39.5L29.1954 36.0652V39.5L25.7607 41.2173L32.6302 44.6521L30.9129 48.0869H37.7825V53.2391H41.2171V48.0869H48.0867L46.3694 44.6521Z" fill="#D80027"/>
</g>
<defs>
<clipPath id="clip0_207_7015">
<rect width="79" height="79" fill="white"/>
</clipPath>
</defs>
</svg>
