<svg width="33" height="30" viewBox="0 0 33 30" fill="none" xmlns="http://www.w3.org/2000/svg">
<path d="M1.70122 19.8907C1.41414 19.8907 1.18115 19.6689 1.18115 19.3956V1.86458C1.18115 1.04575 1.88117 0.379395 2.74137 0.379395H30.8253C31.6855 0.379395 32.3855 1.04575 32.3855 1.86458V6.72785C32.3855 7.00113 32.1525 7.22292 31.8654 7.22292C31.5783 7.22292 31.3453 7.00113 31.3453 6.72785V1.86458C31.3453 1.5923 31.1113 1.36952 30.8253 1.36952H2.74137C2.45533 1.36952 2.2213 1.5923 2.2213 1.86458V19.3956C2.2213 19.6689 1.9883 19.8907 1.70122 19.8907Z" fill="#7F56D9" stroke="#7F56D9" stroke-width="0.71897"/>
<path d="M16.7826 29.0923H11.0618C10.7747 29.0923 10.5417 28.8706 10.5417 28.5973C10.5417 28.3241 10.7747 28.1023 11.0618 28.1023H12.102C12.9622 28.1023 13.6622 27.4361 13.6622 26.6174V24.1425C13.6622 23.8693 13.8952 23.6475 14.1823 23.6475C14.4693 23.6475 14.7023 23.8693 14.7023 24.1425V26.6174C14.7023 27.1748 14.5078 27.6885 14.1812 28.1023H16.7826C17.0697 28.1023 17.3027 28.3241 17.3027 28.5973C17.3027 28.8706 17.0697 29.0923 16.7826 29.0923Z" fill="#7F56D9" stroke="#7F56D9" stroke-width="0.71897"/>
<path d="M17.9968 24.1416H2.74137C1.88117 24.1416 1.18115 23.4754 1.18115 22.6567V19.6868C1.18115 19.4136 1.41414 19.1918 1.70122 19.1918H17.9968C18.2839 19.1918 18.5169 19.4136 18.5169 19.6868C18.5169 19.96 18.2839 20.1818 17.9968 20.1818H2.2213V22.6567C2.2213 22.9289 2.45533 23.1516 2.74137 23.1516H17.9968C18.2839 23.1516 18.5169 23.3734 18.5169 23.6466C18.5169 23.9199 18.2839 24.1416 17.9968 24.1416Z" fill="#7F56D9" stroke="#7F56D9" stroke-width="0.71897"/>
<path d="M22.5032 7.30206H27.7039C27.991 7.30206 28.224 7.08205 28.224 6.81097C28.224 6.53989 27.991 6.31989 27.7039 6.31989H22.5032C22.2161 6.31989 21.9832 6.53989 21.9832 6.81097C21.9832 7.08205 22.2161 7.30206 22.5032 7.30206Z" fill="#7F56D9" stroke="#7F56D9" stroke-width="0.71897"/>
<path d="M24.5843 27.1047H25.6244C25.9115 27.1047 26.1445 26.8847 26.1445 26.6136C26.1445 26.3426 25.9115 26.1226 25.6244 26.1226H24.5843C24.2972 26.1226 24.0642 26.3426 24.0642 26.6136C24.0642 26.8847 24.2972 27.1047 24.5843 27.1047Z" fill="#7F56D9" stroke="#7F56D9" stroke-width="0.71897"/>
<path fill-rule="evenodd" clip-rule="evenodd" d="M20.4243 29.0922H29.7856C31.22 29.0922 32.386 27.9823 32.386 26.6169V6.81434C32.386 5.44895 31.22 4.33902 29.7856 4.33902H20.4243C18.99 4.33902 17.824 5.44895 17.824 6.81434V26.6169C17.824 27.9823 18.99 29.0922 20.4243 29.0922ZM18.8629 6.81332C18.8629 5.99449 19.5629 5.32813 20.4231 5.32813H29.7844C30.6446 5.32813 31.3446 5.99449 31.3446 6.81332V26.6159C31.3446 27.4347 30.6446 28.101 29.7844 28.101H20.4231C19.5629 28.101 18.8629 27.4347 18.8629 26.6159V6.81332Z" fill="#7F56D9"/>
<path d="M29.7856 28.7327H20.4243V29.4517H29.7856V28.7327ZM32.0265 26.6169C32.0265 27.7672 31.0384 28.7327 29.7856 28.7327V29.4517C31.4016 29.4517 32.7455 28.1973 32.7455 26.6169H32.0265ZM32.0265 6.81434V26.6169H32.7455V6.81434H32.0265ZM29.7856 4.6985C31.0384 4.6985 32.0265 5.66398 32.0265 6.81434H32.7455C32.7455 5.23393 31.4016 3.97953 29.7856 3.97953V4.6985ZM20.4243 4.6985H29.7856V3.97953H20.4243V4.6985ZM18.1835 6.81434C18.1835 5.66398 19.1716 4.6985 20.4243 4.6985V3.97953C18.8083 3.97953 17.4645 5.23393 17.4645 6.81434H18.1835ZM18.1835 26.6169V6.81434H17.4645V26.6169H18.1835ZM20.4243 28.7327C19.1716 28.7327 18.1835 27.7672 18.1835 26.6169H17.4645C17.4645 28.1973 18.8083 29.4517 20.4243 29.4517V28.7327ZM20.4231 4.96865C19.3813 4.96865 18.5034 5.77946 18.5034 6.81332H19.2224C19.2224 6.20951 19.7446 5.68762 20.4231 5.68762V4.96865ZM29.7844 4.96865H20.4231V5.68762H29.7844V4.96865ZM31.7041 6.81332C31.7041 5.77946 30.8263 4.96865 29.7844 4.96865V5.68762C30.463 5.68762 30.9852 6.20951 30.9852 6.81332H31.7041ZM31.7041 26.6159V6.81332H30.9852V26.6159H31.7041ZM29.7844 28.4605C30.8263 28.4605 31.7041 27.6497 31.7041 26.6159H30.9852C30.9852 27.2197 30.463 27.7416 29.7844 27.7416V28.4605ZM20.4231 28.4605H29.7844V27.7416H20.4231V28.4605ZM18.5034 26.6159C18.5034 27.6497 19.3813 28.4605 20.4231 28.4605V27.7416C19.7446 27.7416 19.2224 27.2197 19.2224 26.6159H18.5034ZM18.5034 6.81332V26.6159H19.2224V6.81332H18.5034Z" fill="#7F56D9"/>
</svg>
