<svg width="261" height="288" viewBox="0 0 261 288" fill="none" xmlns="http://www.w3.org/2000/svg">
<path d="M130.403 287.293C82.3873 287.293 43.4626 284.752 43.4626 281.617C43.4626 278.483 82.3873 275.941 130.403 275.941C178.419 275.941 217.344 278.483 217.344 281.617C217.344 284.752 178.419 287.293 130.403 287.293Z" fill="#D8F0EF"/>
<path d="M108.971 27.9727C108.971 27.9727 109.875 37.1579 116.604 42.2103C116.604 42.2103 110.183 41.9143 107.419 33.2682L108.971 27.9727Z" fill="#5E433C"/>
<path d="M67.8605 107.987C67.8605 107.987 55.2628 144.379 61.0141 191.563C61.3012 193.941 60.0467 196.985 60.2806 199.279C60.5889 202.154 62.3749 204.258 62.6088 206.985C65.8832 245.248 62.6726 269.072 62.6726 269.072L73.0697 270.214C73.0697 270.214 87.1133 222.903 80.5965 196.721C80.5965 196.721 102.858 133.038 98.6799 108.917L67.8605 107.977V107.987Z" fill="#FFC685"/>
<path d="M47.6618 276.375C56.1986 273.648 62.1519 268.702 62.8429 267.771C62.4071 269.124 71.6667 269.146 73.3039 269.336C74.0799 272.2 74.654 276.048 74.8773 278.606C74.9623 279.525 74.3989 280.371 73.5271 280.677C72.3896 281.079 71.2627 281.459 69.3704 281.121C69.3704 281.121 66.4575 279.927 55.0185 283.33C47.4067 285.592 41.549 283.256 39.6141 281.925C37.6793 280.603 38.5085 279.293 47.6725 276.375H47.6618Z" fill="#FFAD2B"/>
<path d="M73.3358 269.304C73.3358 269.304 70.4336 274.419 65.639 268.268L73.3358 269.304Z" fill="#FFC685"/>
<path d="M65.4899 269.59C65.4899 269.59 67.6267 267.56 68.0413 265.975C68.4559 264.389 64.9583 263.649 63.2786 264.125C61.5989 264.611 62.6514 268.733 62.6514 268.733L65.4899 269.59Z" fill="#FFAD2B"/>
<path d="M39.3484 279.863C39.4334 279.926 39.5079 279.99 39.6035 280.053C41.5384 281.375 47.3961 283.721 55.0079 281.459C66.4469 278.056 69.3598 279.25 69.3598 279.25C71.2415 279.588 72.3684 279.208 73.5165 278.806C74.1331 278.595 74.569 278.108 74.7603 277.527C74.8029 277.908 74.8348 278.267 74.8667 278.605C74.9517 279.525 74.3883 280.37 73.5165 280.677C72.379 281.079 71.2521 281.459 69.3598 281.121C69.3598 281.121 66.4469 279.926 55.0079 283.33C47.3961 285.592 41.5384 283.256 39.6035 281.924C38.6786 281.29 38.4022 280.656 39.3484 279.852V279.863Z" fill="#FF8000"/>
<g style="mix-blend-mode:multiply" opacity="0.3">
<path d="M69.4766 277.791C70.1251 277.062 71.0075 273.859 71.9749 269.378C74.7496 256.493 78.2153 232.985 78.917 226.95C79.8631 218.811 75.7702 198.327 75.7702 195.346C75.7702 192.365 80.9582 169.852 80.9582 169.852L88.772 170.644C84.5196 185.474 80.5861 196.72 80.5861 196.72C86.6032 220.893 75.0898 263.057 73.2932 269.378C74.0586 272.231 74.6327 276.058 74.856 278.605C74.941 279.525 74.3775 280.37 73.5058 280.677C72.3683 281.078 71.2414 281.459 69.3491 281.121C69.3491 281.121 67.6481 280.434 61.7904 281.607C65.6601 280.053 68.7006 278.637 69.466 277.791H69.4766Z" fill="#CC41B6"/>
</g>
<path d="M163.083 126.738C163.083 126.738 161.999 133.239 162.711 135.702C163.423 138.164 167.048 136.759 167.048 136.759L163.083 126.738Z" fill="#FFC685"/>
<path d="M167.665 142.856L194.402 188.846L201.259 184.903L174.522 138.914C174.426 138.744 174.32 138.575 174.224 138.406" stroke="#A8A8A8" stroke-miterlimit="10"/>
<path d="M174.214 138.418C171.673 134.296 168.26 131.833 166.453 132.879L166.421 132.9C164.54 133.978 165.092 138.439 167.665 142.857" stroke="#6C46C2" stroke-width="3" stroke-miterlimit="10" stroke-linecap="round"/>
<path d="M240.966 276.566C240.966 280.604 244.261 283.87 248.322 283.87C252.383 283.87 255.668 280.593 255.668 276.556C255.668 272.518 252.373 269.252 248.312 269.252C244.251 269.252 240.966 272.529 240.966 276.566Z" fill="#5E433C"/>
<path d="M184.589 191.664L207.121 178.715C208.569 177.882 210.423 178.375 211.26 179.815L259.484 262.76C260.321 264.2 259.825 266.043 258.377 266.875L235.845 279.825C234.397 280.657 232.543 280.165 231.706 278.724L183.483 195.779C182.645 194.339 183.141 192.496 184.589 191.664Z" fill="#6C46C2"/>
<path d="M104.315 11.0187C108.631 17.2972 107.653 23.7448 110.47 33.0463C114.478 46.2904 126.204 54.0486 128.606 56.3634C139.429 66.7853 136.527 75.8437 137.494 81.5938C138.812 89.4366 129.234 99.2031 116.03 101.793C99.8388 104.974 90.8131 87.4072 81.9043 74.9664C63.0236 48.584 74.5264 6.54763 87.9746 4.88816C93.524 4.20112 101.519 6.95986 104.315 11.0293V11.0187Z" fill="#5E433C"/>
<path d="M93.9707 58.3707C93.9707 58.3707 94.8106 52.0711 47.5344 53.0118L48.3529 64.9346C48.3529 64.9346 92.6524 75.7687 93.9707 58.3707Z" fill="#FFC685"/>
<path d="M50.9149 54.1963C50.9149 54.1963 31.1731 44.3874 20.3826 38.3203L16.7574 41.6921C16.7574 41.6921 29.6635 54.2174 48.3422 64.9458L50.9043 54.1963H50.9149Z" fill="#FFC685"/>
<path d="M6.87089 33.8699C6.87089 33.8699 4.91477 33.9756 5.43569 36.2799C5.96724 38.5841 7.3918 42.3787 8.42301 42.3153C9.45422 42.2519 11.1021 41.8608 11.1021 41.8608L6.87089 33.8594V33.8699Z" fill="#FFC685"/>
<path d="M6.6792 32.7402C6.6792 32.7402 3.81944 32.7402 4.07458 35.0973C4.32973 37.4438 5.29715 41.3864 6.32836 41.4392C7.35957 41.4921 10.8359 39.7375 10.8359 39.7375L6.6792 32.7402Z" fill="#FFC685"/>
<path d="M21.9243 39.2617C21.9243 39.2617 13.4089 32.2962 8.30597 33.2475C3.71336 34.0931 8.88004 41.0797 9.40096 42.2847C9.91125 43.4897 12.9411 42.3798 14.3444 41.9571C15.3331 41.6611 13.1006 39.7902 14.0148 40.4984C14.0892 40.5513 14.5676 41.0269 14.6102 41.0798C15.5988 42.1896 17.034 42.8026 18.5224 42.7286L21.9137 39.2617H21.9243Z" fill="#FFC685"/>
<path d="M14.6948 35.1605C14.6948 35.1605 2.84122 28.8397 0.938268 27.5713C-0.964686 26.3029 -0.0397625 29.5796 4.31896 32.5814C8.68831 35.5833 14.0782 39.0502 14.0782 39.0502L14.6948 35.1605Z" fill="#FFC685"/>
<path d="M107.61 83.5911C110.885 82.7878 114.871 85.2928 116.594 88.3475C120.357 95.0171 113.255 104.076 111.076 106.845C109.343 109.054 105.186 114.349 102.422 113.377C99.0098 112.172 99.8497 102.11 100.69 97.3531C101.572 92.269 102.89 84.7432 107.61 83.5805V83.5911Z" fill="#E6E6E6"/>
<path d="M96.4583 41.6815L96.873 41.5335C101.04 40.0643 103.262 38.4471 102.965 37.1153C102.773 36.2591 101.583 35.8257 99.8603 35.9949C98.8184 36.1006 97.9892 36.5234 97.3939 37.2527C96.1394 38.7959 96.3946 41.1424 96.4052 41.2481L96.4583 41.6815ZM100.402 36.6608C101.54 36.6291 102.21 36.925 102.284 37.2738C102.401 37.7706 101.434 39.1236 97.0856 40.7302C97.0856 40.022 97.1706 38.6479 97.9467 37.6966C98.4144 37.1153 99.0842 36.777 99.9347 36.7031C100.094 36.6819 100.254 36.6819 100.402 36.6713V36.6608Z" fill="white"/>
<path d="M91.993 40.4667C99.339 40.0862 115.583 40.6253 119.464 48.8275C120.176 50.339 119.336 55.9516 116.965 66.9865C113.191 84.5536 113.011 86.1074 110.948 94.2885C108.354 104.615 109.045 105.503 107.536 107.205C101.008 114.562 85.5931 112.86 75.7488 108.886C72.5807 107.607 70.7522 107.184 69.3383 105.556C62.2793 97.47 69.6572 50.2861 79.3102 43.2149C82.5526 40.8366 89.3671 39.8748 91.9824 40.4561L91.993 40.4667Z" fill="#E6E6E6"/>
<path d="M113.458 84.9344C112.862 86.5305 112.309 88.1476 111.788 89.7754C111.257 91.3926 110.778 93.0309 110.3 94.6693C109.854 96.3182 109.407 97.9671 109.035 99.6265C108.663 101.286 108.333 102.977 108.238 104.679C108.344 103.833 108.503 102.998 108.695 102.163C108.876 101.328 109.078 100.504 109.29 99.6794C109.715 98.0305 110.162 96.3921 110.63 94.7538L113.458 84.9238V84.9344Z" fill="#5E433C"/>
<g style="mix-blend-mode:multiply" opacity="0.17">
<path d="M84.2325 144.367C84.0943 151.269 87.9959 163.773 89.75 168.995L89.3779 170.073C89.261 169.999 89.144 169.925 89.0165 169.862C87.9852 173.477 86.9753 176.88 86.0291 179.988C81.4472 167.684 84.2431 144.367 84.2431 144.367H84.2325Z" fill="#4F0F14"/>
</g>
<path d="M75.6429 130.129C75.6429 130.129 84.4241 167.61 114.51 204.541C116.03 206.402 116.583 209.647 118.018 211.465C119.815 213.737 122.451 214.572 124.11 216.76C147.339 247.444 157.353 269.324 157.353 269.324L165.613 263.542C165.613 263.542 153.377 217.299 133.869 198.569C133.869 198.569 118.688 132.856 102.252 114.645L75.6322 130.129H75.6429Z" fill="#FFC685"/>
<path d="M149.624 277.823C154.323 275.656 153.696 263.448 153.738 262.296C154.163 263.648 162.275 257.782 163.71 257C165.996 258.903 168.781 261.704 170.45 263.67C171.046 264.378 171.077 265.393 170.535 266.143C169.834 267.115 169.132 268.077 167.388 268.881C167.388 268.881 163.529 278.393 160.414 281.712C157.608 284.693 150.389 284.598 148.029 284.619C145.669 284.64 139.822 282.336 149.613 277.823H149.624Z" fill="#FFAD2B"/>
<path d="M90.7387 114.74C90.7387 114.74 76.0254 114.952 68.5305 103.854C68.5305 103.854 58.9839 125.067 56.7301 161.047C56.7301 161.047 83.0419 166.068 89.378 170.084L99.4881 141.155L90.7494 114.74H90.7387Z" fill="#6C46C2"/>
<path d="M73.2933 48.1501C73.2933 48.1501 78.258 48.1713 81.0859 46.6386C83.3609 45.4125 84.5091 44.5564 84.8386 42.7066C85.6253 38.1827 85.4127 33.754 84.1051 30.2236L100.445 7.51953C100.445 7.51953 95.3314 23.5857 96.1288 36.2907C96.3839 40.4341 100.615 44.2921 102.04 45.1166C105.112 46.8817 104.538 47.8647 110.544 48.5306C110.544 48.5306 97.3407 67.2076 81.9895 58.0012C81.9257 57.959 81.8619 57.9273 81.7982 57.885C78.7258 55.993 75.9511 52.5789 73.3039 48.1607L73.2933 48.1501Z" fill="#FFC685"/>
<path d="M84.9343 42.1041C85.0725 41.2902 85.1257 40.2861 85.2426 39.4722L85.4234 39.5779C85.4234 39.5779 90.3137 38.299 93.2266 32.4961C93.2266 32.4961 93.1521 41.1634 84.9343 42.1041Z" fill="#E09153"/>
<path d="M78.9275 17.4869C78.8744 17.8357 78.8106 18.2902 78.7362 18.7976C78.396 21.3872 77.9495 25.6363 77.9176 27.412C77.79 33.9231 80.8624 37.9925 82.3295 39.5568C82.7866 40.0536 83.4776 40.2544 84.1367 40.1382C90.7067 38.9649 94.906 33.7645 97.2448 25.2346C98.4249 20.9538 98.9883 9.68637 95.0973 7.48783C89.6649 4.412 80.2245 9.2847 78.9063 17.4975L78.9275 17.4869Z" fill="#FFC685"/>
<path d="M98.4463 30.4989C97.2556 32.3592 95.1188 33.1308 93.6942 32.2218C92.259 31.3128 92.0677 29.072 93.269 27.2117C94.4597 25.3514 96.5965 24.5798 98.021 25.4888C99.4562 26.3978 99.6476 28.6386 98.4463 30.4989Z" fill="#FFC685"/>
<path d="M76.4082 48.1404C76.4082 48.1404 73.878 45.5613 58.6969 51.6073C58.6969 51.6073 54.7953 68.7516 58.1972 72.9901L71.603 72.2291L76.3976 48.1404H76.4082Z" fill="#FFAD2B"/>
<g style="mix-blend-mode:multiply" opacity="0.3">
<path d="M18.0969 42.9293V42.9082C18.0969 42.9082 45.4825 61.7966 49.2565 63.2024C53.0305 64.6082 67.9033 64.7244 67.9033 64.7244L66.4681 72.5144L58.1972 72.9795C57.1872 71.7217 56.8258 69.3435 56.8045 66.6059C51.7973 65.7709 48.3422 64.9252 48.3422 64.9252C33.193 56.2262 21.8391 46.3434 18.0863 42.9188L18.0969 42.9293Z" fill="#CC41B6"/>
</g>
<path d="M105.824 61.5114C106.005 58.1502 119.24 62.5155 122.855 63.9953C136.452 69.5445 150.081 87.2068 152.08 88.0629C156.523 89.9866 166.697 120.978 169.546 124.92L163.274 129.381C163.274 129.381 162.955 126.78 159.957 120.608C156.258 112.987 144.67 97.5441 143.713 95.3033C143.713 95.3033 105.356 70.5698 105.835 61.522L105.824 61.5114Z" fill="#FFC685"/>
<path d="M108.035 46.976C108.035 46.976 114.595 45.3588 134.996 69.3102C134.996 69.3102 127.66 79.2353 123.62 81.5184C123.62 81.5184 110.364 72.3014 102.305 63.0422C94.1299 53.6562 108.046 46.976 108.046 46.976H108.035Z" fill="#FFAD2B"/>
<path d="M78.6088 20.6897C78.6088 20.6897 78.3217 24.5794 75.951 26.1755C74.1756 27.3699 76.9928 29.0399 77.939 28.8919" fill="#FFC685"/>
<path d="M69.4126 64.3015C69.9442 62.7477 71.8578 48.5313 71.8684 48.5207C73.3249 47.9922 73.6119 48.0345 75.1534 47.8125C76.7481 47.58 79.5653 47.58 81.043 46.6075C81.6702 46.1953 77.0351 52.6641 86.4861 54.1016C95.3311 54.2918 102.039 45.1172 102.039 45.1172C105.431 46.5018 111.926 46.8718 111.533 48.3833C111.533 48.3833 114.935 57.1457 112.968 67.4408C112.968 67.4408 110.183 78.8668 105.633 86.086C105.633 86.086 103.304 99.4252 103.772 102.448V113.906C92.0674 120.163 79.3952 120.967 70.6352 109.076L67.2014 109.689C70.2419 97.7869 71.2093 88.4008 69.1044 84.49C66.0745 78.8774 67.1164 71.1085 69.4233 64.3121L69.4126 64.3015Z" fill="#FFAD2B"/>
<path d="M163.263 129.369C163.263 129.369 164.656 136.281 166.676 138.956L176.127 132.265L169.153 124.189L163.263 129.358V129.369Z" fill="#FFC685"/>
<path d="M166.166 138.154C166.166 138.154 166.878 139.803 167.899 139.771C168.92 139.729 169.674 138.778 170.004 138.725C170.323 138.672 171.726 138.64 172.066 137.742C172.407 136.843 172.449 137.509 173.693 137.044C174.937 136.59 174.256 135.67 174.745 135.194C175.234 134.719 177.552 134.285 176.01 132.203L166.155 138.165L166.166 138.154Z" fill="#FFC685"/>
<path d="M79.0765 6.21945C82.8824 2.73139 91.1533 3.3973 98.0848 6.28288C104.081 8.77737 102.656 15.4998 100.945 21.5458C99.5519 26.503 95.3632 25.1395 95.3632 25.1395C95.3632 25.1395 84.6578 23.1735 83.8498 10.088C82.6698 10.384 80.6393 13.6184 78.7363 18.5545C78.7363 18.5545 75.2706 9.69694 79.0765 6.20888V6.21945Z" fill="#5E433C"/>
<path d="M86.529 10.2461C86.529 10.2461 84.2327 16.8945 87.6027 20.2135C90.9728 23.5324 88.8572 26.7562 88.8572 26.7562C88.8572 26.7562 89.6545 24.5577 87.6984 22.3169C85.7423 20.0761 82.5423 13.8081 83.733 10.8908L86.5396 10.2567L86.529 10.2461Z" fill="#5E433C"/>
<path d="M68.1479 92.6187C68.2861 92.6187 68.4136 92.5976 68.5518 92.5659C69.296 92.3545 69.7212 91.5829 69.5086 90.843C60.3022 59.3131 82.521 45.16 82.7549 45.0226C83.414 44.6209 83.616 43.7648 83.2014 43.1095C82.7974 42.4541 81.9363 42.2533 81.2772 42.6655C81.022 42.8241 75.0687 46.5552 70.2847 54.4826C65.8835 61.7758 61.7161 74.1426 66.819 91.6146C66.9997 92.2171 67.5419 92.6082 68.1479 92.6187Z" fill="#E6E6E6"/>
<path d="M128.415 164.524C128.415 164.524 102.518 189.131 52.8073 165.486C52.8073 165.486 60.738 133.84 68.5412 103.853C68.5412 103.853 82.5423 112.32 103.783 102.447C103.783 102.447 123.015 128.312 128.426 164.535L128.415 164.524Z" fill="#6C46C2"/>
<path d="M163.71 257C163.71 257 164.816 263.469 156.289 261.492L163.71 257Z" fill="#FFC685"/>
<path d="M157.108 262.751C157.108 262.751 157.523 259.495 156.757 257.825C155.992 256.166 152.43 257.963 151.314 259.559C150.198 261.155 154.036 263.998 154.036 263.998L157.108 262.751Z" fill="#FFAD2B"/>
<path d="M146.913 283.372C149.263 283.351 156.492 283.446 159.298 280.465C162.413 277.146 166.272 267.633 166.272 267.633C168.016 266.83 168.707 265.879 169.419 264.896C169.961 264.145 169.929 263.13 169.334 262.422C169.291 262.369 169.238 262.317 169.196 262.264C169.653 262.76 170.089 263.236 170.45 263.669C171.046 264.378 171.077 265.392 170.535 266.143C169.834 267.115 169.132 268.077 167.388 268.88C167.388 268.88 163.529 278.393 160.414 281.712C157.608 284.693 150.389 284.598 148.029 284.619C146.764 284.63 144.5 283.974 144.181 282.664C145.031 283.139 146.158 283.382 146.913 283.372Z" fill="#FF8000"/>
<path d="M254.159 268.584C255.743 267.675 256.285 265.656 255.371 264.081L207.605 181.901C206.925 180.727 205.617 180.125 204.352 180.283L206.861 178.846C208.445 177.937 210.476 178.476 211.39 180.051L259.325 262.507C260.24 264.081 259.697 266.1 258.113 267.009L236.065 279.683C235.459 280.031 234.778 280.169 234.13 280.105L254.18 268.584H254.159Z" fill="#5F3978"/>
<path d="M80.7246 10.1309C80.7246 10.1309 76.2596 11.5789 75.0157 17.8151C73.7825 24.0408 71.5713 28.1736 71.2204 28.1736C70.8696 28.1736 74.1546 26.5036 75.5154 20.2674C76.8762 14.0311 81.3306 11.061 81.3306 11.061L80.7352 10.1309H80.7246Z" fill="#5E433C"/>
<g style="mix-blend-mode:multiply" opacity="0.3">
<path d="M88.5169 87.9565C103.145 87.8825 106.685 68.1697 106.685 68.1697L111.618 72.1545C110.374 76.1288 108.312 81.8365 105.622 86.0856C105.622 86.0856 103.294 99.4248 103.762 102.448C103.762 102.448 122.993 128.312 128.405 164.535C128.405 164.535 127.352 165.529 125.29 166.913C130.531 184.132 133.869 198.581 133.869 198.581C148.859 212.977 159.553 243.608 163.7 257.022C163.7 257.022 163.7 257.022 163.71 257.022C165.996 258.924 168.781 261.725 170.45 263.691C171.046 264.399 171.078 265.414 170.535 266.165C169.834 267.137 169.132 268.099 167.389 268.902C167.389 268.902 163.529 278.415 160.415 281.734C158.905 283.341 156.098 284.059 153.462 284.376C155.684 282.812 157.385 280.592 159.947 275.942C162.53 271.238 162.945 268.543 162.456 265.784C162.36 265.234 162.222 264.685 162.062 264.114C161.903 263.543 161.722 262.962 161.52 262.338C161.467 262.18 161.414 262 161.34 261.789C161.329 261.746 161.308 261.694 161.297 261.651C161.244 261.472 161.18 261.281 161.116 261.07C161.095 261.006 161.074 260.943 161.052 260.88C160.989 260.679 160.925 260.457 160.85 260.224C160.787 260.002 160.702 259.759 160.627 259.516C158.044 251.282 151.485 230.46 146.573 221.507C140.907 211.18 130.999 201.012 130.999 201.012C130.999 201.012 116.997 178.794 118.092 172.23C118.156 171.871 118.167 171.406 118.135 170.845C117.986 167.78 116.572 161.776 114.531 154.674C114.329 153.976 114.127 153.278 113.914 152.56C113.914 152.528 113.893 152.496 113.883 152.464C113.681 151.788 113.479 151.111 113.277 150.424C113.255 150.34 113.223 150.266 113.202 150.181C113.011 149.537 112.809 148.881 112.607 148.226C112.575 148.12 112.543 148.004 112.501 147.898C112.309 147.285 112.118 146.672 111.926 146.049C111.873 145.89 111.831 145.731 111.778 145.562C111.597 144.992 111.416 144.421 111.235 143.85C111.172 143.649 111.108 143.438 111.033 143.237C110.863 142.719 110.693 142.201 110.523 141.683C110.438 141.419 110.353 141.165 110.268 140.901C110.119 140.457 109.97 140.024 109.832 139.58C109.726 139.242 109.609 138.914 109.503 138.576C109.396 138.269 109.301 137.963 109.194 137.667C106.313 129.147 103.241 120.956 100.838 115.523C100.806 115.459 100.785 115.396 100.753 115.343C100.594 114.973 100.434 114.624 100.275 114.286C100.232 114.201 100.2 114.117 100.158 114.032C100.02 113.736 99.8815 113.451 99.7539 113.176C99.6795 113.018 99.6051 112.88 99.5307 112.732C99.435 112.531 99.3393 112.341 99.2436 112.151C99.0735 111.823 98.9035 111.506 98.7546 111.221C98.4144 110.618 98.1168 110.048 97.8297 109.487C97.6703 109.191 97.5427 108.906 97.3939 108.621C97.2875 108.399 97.1706 108.166 97.0643 107.955C96.8836 107.574 96.7135 107.215 96.554 106.855C96.5221 106.771 96.4796 106.697 96.4477 106.612C93.4604 99.8159 94.4916 97.3848 92.8438 94.3195C90.877 90.6412 82.0639 90.7998 77.3437 89.2354C72.6236 87.6711 73.878 88.0622 88.5169 87.9882V87.9565Z" fill="#CC41B6"/>
</g>
<g style="mix-blend-mode:multiply" opacity="0.3">
<path d="M134.996 69.3104C134.996 69.3104 134.57 69.8812 133.89 70.7584C143.096 78.02 150.634 87.4377 152.069 88.0613C156.321 89.9005 165.804 118.323 169.121 124.242L169.164 124.21L176.138 132.286L176.095 132.317C177.477 134.305 175.234 134.738 174.756 135.203C174.267 135.679 174.947 136.598 173.703 137.053C172.459 137.507 172.417 136.841 172.077 137.75C171.736 138.649 170.344 138.68 170.014 138.733C169.695 138.786 168.93 139.737 167.909 139.78C167.038 139.811 166.389 138.617 166.219 138.268C178.36 129.115 168.218 125.51 168.218 125.51L150.985 91.0209C150.985 91.0209 130.212 68.4965 124.79 61.922C119.357 55.3476 106.377 46.6697 106.377 46.6697L106.877 46.416C108.79 46.8282 110.544 47.2088 111.225 47.7478C114.956 49.3967 122.281 54.3963 134.985 69.3104H134.996Z" fill="#CC41B6"/>
</g>
<path d="M108.365 91.5824L110.13 89.4261C95.8311 77.8521 109.8 42.739 109.949 42.3902L107.196 41.7031C106.579 43.2252 92.4824 78.7188 108.376 91.5824H108.365Z" fill="#E6E6E6"/>
<path d="M111.81 25.0777C111.81 25.0777 97.1812 24.3695 72.6342 5.36486C59.5474 -4.76108 87.4113 7.3203 97.4151 12.8695C107.568 18.5032 120.782 25.1834 111.81 25.0671V25.0777Z" fill="#FFAD2B"/>
<path d="M107.398 21.24L79.3956 6.61135C79.3956 6.61135 86.4759 -4.57158 99.9241 2.15086C113 8.68304 107.398 21.24 107.398 21.24Z" fill="#FFAD2B"/>
<path d="M98.7334 42.0408C100.881 42.8441 102.359 44.0279 102.922 45.4231C102.614 45.328 102.316 45.2223 102.04 45.106C101.349 44.7044 99.9772 43.5734 98.7334 42.0408Z" fill="#5E433C"/>
<path d="M81.0965 46.628C81.0965 46.628 81.0965 46.5752 81.0434 46.6069C80.7032 46.8288 80.2886 46.998 79.8421 47.1248C80.7563 45.8353 81.9151 44.6303 83.4035 43.6367C83.85 43.3408 84.3284 43.0871 84.8068 42.844C84.4453 44.588 83.2972 45.4442 81.0965 46.628Z" fill="#5E433C"/>
<path d="M83.1055 45.4978C79.1295 48.8167 78.1302 54.0383 77.5774 56.945L77.5348 57.1564C76.5674 62.2088 77.4498 66.5107 78.3534 69.2272L77.1096 69.6394C76.1528 66.775 75.2173 62.2405 76.2485 56.9133L76.291 56.7019C76.7481 54.3131 77.5029 50.4339 79.8417 47.1361C80.2882 46.9987 80.7029 46.8402 81.043 46.6182C81.0856 46.5865 81.1069 46.5971 81.0962 46.6394C81.8935 46.2166 82.542 45.8255 83.0736 45.4238" fill="#5E433C"/>
<path d="M102.04 45.1061C102.316 45.2223 102.614 45.3175 102.922 45.4232C102.933 45.4549 102.954 45.476 102.965 45.5077C103.826 47.8119 102.082 50.4755 98.5952 55.8028C97.2663 57.8427 96.2883 59.0477 95.4165 60.1153C94.5448 61.1828 93.8006 62.113 92.8864 63.635C91.1003 66.6052 89.8246 69.9664 89.1017 73.6341L87.8153 73.3805C88.5701 69.5647 89.8884 66.0555 91.7595 62.9586C92.7269 61.3519 93.4923 60.4007 94.3959 59.2908C95.2358 58.2444 96.1926 57.0606 97.5002 55.0734C100.636 50.2747 102.359 47.6323 101.731 45.9516C101.689 45.8459 100.806 44.2287 100.753 44.123" fill="#5E433C"/>
<path d="M76.3506 64.5753L80.0342 65.3418L79.4375 68.1765L75.7539 67.4101L76.3506 64.5753Z" fill="#5E433C"/>
<path d="M74.9519 65.8543L93.0576 69.6215C93.5749 69.7292 93.9064 70.2333 93.7982 70.7475L91.455 81.8796C91.3468 82.3938 90.8397 82.7234 90.3225 82.6158L72.2168 78.8485C71.6996 78.7409 71.368 78.2368 71.4763 77.7225L73.8194 66.5905C73.9276 66.0763 74.4347 65.7466 74.9519 65.8543Z" fill="#976C61"/>
<path d="M77.0193 75.9655C75.5261 73.714 76.1514 70.6852 78.416 69.2006C80.6806 67.716 83.7269 68.3377 85.2201 70.5892C86.7133 72.8408 86.088 75.8696 83.8234 77.3542C81.5588 78.8388 78.5126 78.2171 77.0193 75.9655Z" fill="#5E433C"/>
<path d="M77.5242 72.5366C77.1096 74.5132 78.3853 76.4369 80.3627 76.8491C82.3507 77.2614 84.2855 75.993 84.7001 74.027C85.1147 72.0504 83.839 70.1267 81.8617 69.7145C79.8843 69.3022 77.9388 70.5706 77.5242 72.5366Z" fill="#D8F0EF"/>
<path d="M88.9634 81.373C89.6225 81.5104 90.271 81.0877 90.4092 80.4323L92.6417 69.8096C92.663 69.7145 92.6417 69.6194 92.6417 69.5137L92.8012 69.5454C93.4603 69.6828 93.8856 70.3275 93.7474 70.9829L91.5148 81.6056C91.3766 82.2609 90.7282 82.6837 90.069 82.5463L72.4747 78.8786C71.9219 78.7623 71.5498 78.2761 71.5285 77.737L88.974 81.3625L88.9634 81.373Z" fill="#5E433C"/>
<g style="mix-blend-mode:multiply" opacity="0.3">
<path d="M103.071 19.4425C103.273 18.7237 88.5703 11.6736 82.8189 8.4498L83.0315 8.51322L81.9365 7.94245C81.5538 7.72048 81.2349 7.51966 81.001 7.35054C77.8117 5.1203 99.1695 14.9714 102.827 11.5785C104.868 9.67591 103.677 6.20899 102.221 3.51367C109.354 8.32296 108.971 15.2462 108.131 18.8506C114.085 22.3598 117.604 25.1396 111.788 25.0656C111.788 25.0656 104.591 24.7063 91.834 17.9521C96.0227 18.766 102.89 20.0027 103.06 19.4319L103.071 19.4425Z" fill="#CC41B6"/>
</g>
<g style="mix-blend-mode:multiply" opacity="0.3">
<path d="M123.961 216.582L131.317 226.518C131.317 226.518 126.757 212.555 126.087 213.538C125.417 214.521 125.226 216.275 123.961 216.593V216.582Z" fill="#CC41B6"/>
</g>
<g style="mix-blend-mode:multiply" opacity="0.3">
<path d="M62.5983 206.805L63.1086 213.221C63.1086 213.221 66.5744 203.603 65.7026 204.226C64.8309 204.85 63.8953 206.964 62.5983 206.805Z" fill="#CC41B6"/>
</g>
</svg>
