<svg width="71" height="70" viewBox="0 0 71 70" fill="none" xmlns="http://www.w3.org/2000/svg">
<circle cx="35.2677" cy="34.8661" r="34.8419" fill="#181818"/>
<path d="M34.6706 35.6678L24.066 27.7143C23.8936 27.5834 23.7537 27.4147 23.6569 27.2211C23.5602 27.0276 23.5091 26.8144 23.5078 26.598V20.3189C23.5078 19.9489 23.6548 19.594 23.9165 19.3323C24.1782 19.0706 24.5331 18.9236 24.9032 18.9236H44.4381C44.8081 18.9236 45.163 19.0706 45.4247 19.3323C45.6864 19.594 45.8334 19.9489 45.8334 20.3189V26.5282C45.8321 26.7446 45.7811 26.9578 45.6843 27.1514C45.5875 27.3449 45.4476 27.5136 45.2753 27.6445L34.6706 35.6678Z" stroke="white" stroke-width="2.64065" stroke-linecap="round" stroke-linejoin="round"/>
<path d="M34.6706 35.6677L24.066 43.6212C23.8936 43.7521 23.7537 43.9208 23.6569 44.1144C23.5602 44.3079 23.5091 44.5211 23.5078 44.7375V51.0166C23.5078 51.3866 23.6548 51.7416 23.9165 52.0032C24.1782 52.2649 24.5331 52.4119 24.9032 52.4119H44.4381C44.8081 52.4119 45.163 52.2649 45.4247 52.0032C45.6864 51.7416 45.8334 51.3866 45.8334 51.0166V44.8073C45.8321 44.5909 45.7811 44.3777 45.6843 44.1842C45.5875 43.9906 45.4476 43.8219 45.2753 43.691L34.6706 35.6677Z" stroke="white" stroke-width="2.64065" stroke-linecap="round" stroke-linejoin="round"/>
</svg>
