<svg width="56" height="56" viewBox="0 0 56 56" fill="none" xmlns="http://www.w3.org/2000/svg">
<path opacity="0.2" d="M28 49C39.598 49 49 39.598 49 28C49 16.402 39.598 7 28 7C16.402 7 7 16.402 7 28C7 39.598 16.402 49 28 49Z" fill="#FF8800"/>
<path d="M28 49C39.598 49 49 39.598 49 28C49 16.402 39.598 7 28 7C16.402 7 7 16.402 7 28C7 39.598 16.402 49 28 49Z" stroke="#FF8800" stroke-width="3" stroke-miterlimit="10"/>
<path d="M37.0947 33.2493C36.1722 34.8449 34.8462 36.1697 33.2497 37.0908C31.6533 38.0119 29.8426 38.4967 27.9996 38.4967C26.1565 38.4968 24.3458 38.0119 22.7493 37.0909C21.1529 36.1698 19.8268 34.845 18.9043 33.2494" stroke="#FF8800" stroke-width="3" stroke-linecap="round" stroke-linejoin="round"/>
<path d="M21.25 23.625C21.25 24.2463 20.7463 24.75 20.125 24.75C19.5037 24.75 19 24.2463 19 23.625C19 23.0037 19.5037 22.5 20.125 22.5C20.7463 22.5 21.25 23.0037 21.25 23.625Z" fill="#FF8800" stroke="#FF8800" stroke-width="3"/>
<path d="M37 23.625C37 24.2463 36.4963 24.75 35.875 24.75C35.2537 24.75 34.75 24.2463 34.75 23.625C34.75 23.0037 35.2537 22.5 35.875 22.5C36.4963 22.5 37 23.0037 37 23.625Z" fill="#FF8800" stroke="#FF8800" stroke-width="3"/>
</svg>
