<svg width="103" height="102" viewBox="0 0 103 102" fill="none" xmlns="http://www.w3.org/2000/svg">
<rect x="0.5" width="102" height="102" rx="26" fill="#FED369"/>
<path d="M32.8049 61.0049C33.0876 61.0053 33.3677 60.9498 33.6289 60.8416C33.8901 60.7334 34.1273 60.5747 34.327 60.3745L46.4374 48.264L51.3728 53.1995C51.5727 53.3994 51.81 53.558 52.0712 53.6661C52.3323 53.7743 52.6122 53.83 52.8949 53.83C53.1776 53.83 53.4575 53.7743 53.7187 53.6661C53.9798 53.558 54.2171 53.3994 54.417 53.1995L67.9616 39.6549L67.9608 44.5024C67.9608 45.0733 68.1876 45.6208 68.5912 46.0245C68.9949 46.4281 69.5424 46.6549 70.1133 46.6549C70.6842 46.6549 71.2317 46.4281 71.6353 46.0245C72.039 45.6208 72.2658 45.0733 72.2658 44.5024L72.2674 34.4574C72.2674 33.8866 72.0406 33.3391 71.6369 32.9354C71.2333 32.5317 70.6858 32.3049 70.1149 32.3049H60.0699C59.499 32.3049 58.9515 32.5317 58.5479 32.9354C58.1442 33.3391 57.9174 33.8866 57.9174 34.4574C57.9174 35.0283 58.1442 35.5758 58.5479 35.9795C58.9515 36.3831 59.499 36.6099 60.0699 36.6099H64.9183L52.8949 48.6333L47.9595 43.6978C47.7596 43.4979 47.5223 43.3394 47.2612 43.2312C47 43.123 46.7201 43.0673 46.4374 43.0673C46.1547 43.0673 45.8748 43.123 45.6137 43.2312C45.3525 43.3394 45.1152 43.4979 44.9153 43.6978L31.2828 57.3303C30.9818 57.6314 30.7768 58.0149 30.6937 58.4325C30.6106 58.85 30.6533 59.2828 30.8162 59.6761C30.9791 60.0695 31.255 60.4057 31.609 60.6422C31.963 60.8787 32.3792 61.0049 32.8049 61.0049Z" fill="white"/>
<path d="M70.1148 65.3098H32.8048C32.234 65.3098 31.6865 65.5366 31.2828 65.9403C30.8791 66.3439 30.6523 66.8914 30.6523 67.4623C30.6523 68.0332 30.8791 68.5807 31.2828 68.9844C31.6865 69.388 32.234 69.6148 32.8048 69.6148H70.1148C70.6857 69.6148 71.2332 69.388 71.6369 68.9844C72.0405 68.5807 72.2673 68.0332 72.2673 67.4623C72.2673 66.8914 72.0405 66.3439 71.6369 65.9403C71.2332 65.5366 70.6857 65.3098 70.1148 65.3098Z" fill="white"/>
</svg>
