<svg width="56" height="56" viewBox="0 0 56 56" fill="none" xmlns="http://www.w3.org/2000/svg">
<path opacity="0.2" d="M19.25 35C25.5322 35 30.625 29.9072 30.625 23.625C30.625 17.3428 25.5322 12.25 19.25 12.25C12.9678 12.25 7.875 17.3428 7.875 23.625C7.875 29.9072 12.9678 35 19.25 35Z" fill="#0F9918"/>
<path d="M19.25 35C25.5322 35 30.625 29.9072 30.625 23.625C30.625 17.3428 25.5322 12.25 19.25 12.25C12.9678 12.25 7.875 17.3428 7.875 23.625C7.875 29.9072 12.9678 35 19.25 35Z" stroke="#0F9918" stroke-width="3" stroke-miterlimit="10"/>
<path d="M33.9961 12.6736C35.5606 12.2328 37.2015 12.1324 38.8081 12.3791C40.4147 12.6259 41.9498 13.214 43.31 14.104C44.6702 14.994 45.8238 16.1651 46.6933 17.5385C47.5627 18.9118 48.1278 20.4556 48.3504 22.0657C48.573 23.6759 48.4479 25.315 47.9837 26.8728C47.5194 28.4305 46.7268 29.8707 45.6591 31.0963C44.5914 32.3219 43.2734 33.3045 41.794 33.9779C40.3146 34.6512 38.708 34.9997 37.0826 34.9999" stroke="#0F9918" stroke-width="3" stroke-linecap="round" stroke-linejoin="round"/>
<path d="M3.49805 43.1805C5.27459 40.6535 7.63306 38.5911 10.3743 37.1673C13.1156 35.7435 16.1592 35.0001 19.2482 35C22.3372 34.9999 25.3809 35.743 28.1223 37.1666C30.8637 38.5902 33.2223 40.6525 34.999 43.1793" stroke="#0F9918" stroke-width="3" stroke-linecap="round" stroke-linejoin="round"/>
<path d="M37.082 35C40.1713 34.9978 43.2156 35.74 45.9572 37.1637C48.6989 38.5875 51.057 40.6509 52.8321 43.1793" stroke="#0F9918" stroke-width="3" stroke-linecap="round" stroke-linejoin="round"/>
</svg>
