<svg width="70" height="70" viewBox="0 0 70 70" fill="none" xmlns="http://www.w3.org/2000/svg">
<path d="M19.9352 32.9938C14.3906 32.9938 9.82452 37.7228 9.82452 43.2673V51.4213C9.82452 56.9658 14.3906 61.6951 19.9352 61.6951H38.3627C43.9073 61.6951 48.4734 56.9658 48.4734 51.4213V43.2673C48.4734 37.7228 43.9073 32.9938 38.3627 32.9938H19.9352ZM19.9352 37.2337H38.3627C41.7873 37.2337 44.3965 39.8427 44.3965 43.2673V51.4213C44.3965 54.8458 41.7873 57.6181 38.3627 57.6181H19.9352C16.5106 57.6181 13.9014 54.8458 13.9014 51.4213V43.2673C13.9014 39.8427 16.5106 37.2337 19.9352 37.2337Z" fill="#303030"/>
<path d="M22.0553 41.1473C21.403 41.3107 20.9138 41.4731 20.5876 41.7998L16.5108 45.8768C15.6954 46.6922 15.6954 47.9966 16.5108 48.812L20.5876 52.889C22.5446 54.8459 25.4799 51.9107 23.523 49.9537L20.7507 47.3444L23.523 44.7353C24.8276 43.4307 23.8492 41.1476 22.0553 41.1476V41.1473ZM36.2429 41.1473C34.4491 41.1473 33.4706 43.4304 34.7752 44.735L37.5475 47.3441L34.7752 49.9533C32.9814 51.9102 35.7537 54.8457 37.7106 52.8887L41.7874 48.8118C42.6028 47.9964 42.6028 46.692 41.7874 45.8765L37.7106 41.7996C37.3844 41.4737 36.8952 41.1471 36.2429 41.1471V41.1473Z" fill="#303030"/>
<path d="M28.089 8.69495C22.5444 8.69495 17.9783 13.261 17.9783 18.8056V35.113C17.9783 37.8853 22.0552 37.8853 22.0552 35.113V18.8056C22.0552 15.381 24.6644 12.6087 28.089 12.6087H50.5934C54.018 12.6087 56.6272 15.381 56.6272 18.8056V43.2667C56.6272 46.6913 54.018 49.4637 50.5934 49.4637H46.5165C43.7442 49.4637 43.7442 53.5405 46.5165 53.5405H50.5934C56.138 53.5405 60.7041 48.8112 60.7041 43.2667V18.8056C60.7041 13.261 56.138 8.69495 50.5934 8.69495H28.089Z" fill="#303030"/>
<path d="M28.089 16.686C25.4798 16.686 25.4798 20.763 28.089 20.763H30.2089C32.8181 20.763 32.8181 16.686 30.2089 16.686H28.089ZM38.3627 16.686C35.5904 16.686 35.5904 20.763 38.3627 20.763H50.5934C53.2026 20.763 53.2026 16.686 50.5934 16.686H38.3627ZM48.4734 24.8397C45.8642 24.8397 45.8642 28.9167 48.4734 28.9167H50.5934C53.2026 28.9167 53.2026 24.8397 50.5934 24.8397H48.4734ZM32.1658 24.8397C29.5566 24.8397 29.5566 28.9167 32.1658 28.9167H40.3196C43.0919 28.9167 43.0919 24.8397 40.3196 24.8397H32.1658ZM30.0459 41.1474C29.0674 41.3107 28.4151 41.9628 28.252 42.7782L26.1321 50.9319C25.1536 53.7042 29.5566 54.8455 30.0459 51.9102L32.1658 43.7565C32.492 42.4519 31.5135 41.1474 30.0459 41.1474Z" fill="#303030"/>
</svg>
