<svg width="58" height="56" viewBox="0 0 58 56" fill="none" xmlns="http://www.w3.org/2000/svg">
<mask id="mask0_202_18" style="mask-type:alpha" maskUnits="userSpaceOnUse" x="0" y="0" width="58" height="56">
<ellipse cx="28.9273" cy="28.1711" rx="28.0824" ry="27.7836" fill="#C4C4C4"/>
</mask>
<g mask="url(#mask0_202_18)">
<path d="M-7.54254 -0.660889H76.3325V62.2454H-7.54254V-0.660889Z" fill="#DE2910"/>
<path d="M2.52244 22.6143L8.18394 5.62964L13.8454 22.6143L-1.25189 12.2348H17.6198L2.52244 22.6143Z" fill="#FFDE00"/>
<path d="M27.0783 5.95513L21.252 7.2463L25.1384 2.71748L24.7572 8.81267L21.5239 3.4166L27.0783 5.95513Z" fill="#FFDE00"/>
<path d="M32.9585 13.4079L27.0874 12.3383L32.426 9.67128L29.7108 15.1415L28.8234 8.91383L32.9585 13.4079Z" fill="#FFDE00"/>
<path d="M32.1016 23.8625L27.1772 20.4913L33.1394 20.2336L28.4292 24.1208L30.1589 18.0726L32.1016 23.8625Z" fill="#FFDE00"/>
<path d="M24.6955 30.6926L21.4553 25.6811L27.0543 27.7462L21.2083 29.5125L25.1397 24.6017L24.6955 30.6926Z" fill="#FFDE00"/>
</g>
</svg>
